HIERARCHY
ROOT Hips
{
 OFFSET 0.000000 0.000000 0.000000
 CHANNELS 6 Xposition Yposition Zposition Yrotation Xrotation Zrotation
 JOINT Chest
 {
  OFFSET 0.000000 10.354800 0.006500
  CHANNELS 3 Yrotation Xrotation Zrotation
  JOINT Chest2
  {
   OFFSET 0.000000 10.435800 -0.013200
   CHANNELS 3 Yrotation Xrotation Zrotation
   JOINT Chest3
   {
    OFFSET 0.000000 10.393700 0.000000
    CHANNELS 3 Yrotation Xrotation Zrotation
    JOINT Chest4
    {
     OFFSET 0.000000 10.383100 0.000000
     CHANNELS 3 Yrotation Xrotation Zrotation
     JOINT Neck
     {
      OFFSET 0.000000 15.694000 0.000000
      CHANNELS 3 Yrotation Xrotation Zrotation
      JOINT Head
      {
       OFFSET 0.000000 9.711000 -0.028000
       CHANNELS 3 Yrotation Xrotation Zrotation
       End Site
       {
        OFFSET 0.000000 18.578700 -0.014800
       }
      }
     }
     JOINT RightCollar
     {
      OFFSET -3.157200 10.367500 0.000000
      CHANNELS 3 Yrotation Xrotation Zrotation
      JOINT RightShoulder
      {
       OFFSET -14.482500 0.000000 0.000000
       CHANNELS 3 Yrotation Xrotation Zrotation
       JOINT RightElbow
       {
        OFFSET 0.000000 -31.707800 0.000000
        CHANNELS 3 Yrotation Xrotation Zrotation
        JOINT RightWrist
        {
         OFFSET 0.000000 -25.659300 0.000000
         CHANNELS 3 Yrotation Xrotation Zrotation
         End Site
         {
          OFFSET 0.000000 -18.994300 0.000000
         }
        }
       }
      }
     }
     JOINT LeftCollar
     {
      OFFSET 3.157200 10.367500 0.000000
      CHANNELS 3 Yrotation Xrotation Zrotation
      JOINT LeftShoulder
      {
       OFFSET 14.482500 0.000000 0.000000
       CHANNELS 3 Yrotation Xrotation Zrotation
       JOINT LeftElbow
       {
        OFFSET 0.000000 -31.707800 0.000000
        CHANNELS 3 Yrotation Xrotation Zrotation
        JOINT LeftWrist
        {
         OFFSET 0.000000 -25.659300 0.000000
         CHANNELS 3 Yrotation Xrotation Zrotation
         End Site
         {
          OFFSET 0.000000 -18.994300 0.000000
         }
        }
       }
      }
     }
    }
   }
  }
 }
 JOINT RightHip
 {
  OFFSET -8.365600 -0.032100 -0.003200
  CHANNELS 3 Yrotation Xrotation Zrotation
  JOINT RightKnee
  {
   OFFSET 0.000000 -43.980000 0.003100
   CHANNELS 3 Yrotation Xrotation Zrotation
   JOINT RightAnkle
   {
    OFFSET 0.000000 -42.882800 0.005200
    CHANNELS 3 Yrotation Xrotation Zrotation
    JOINT RightToe
    {
     OFFSET 0.000000 -4.915500 10.826300
     CHANNELS 3 Yrotation Xrotation Zrotation
     End Site
     {
      OFFSET 0.000000 -1.517500 6.175900
     }
    }
   }
  }
 }
 JOINT LeftHip
 {
  OFFSET 8.365600 -0.032100 -0.003200
  CHANNELS 3 Yrotation Xrotation Zrotation
  JOINT LeftKnee
  {
   OFFSET 0.000000 -43.980000 0.003100
   CHANNELS 3 Yrotation Xrotation Zrotation
   JOINT LeftAnkle
   {
    OFFSET 0.000000 -42.882800 0.005200
    CHANNELS 3 Yrotation Xrotation Zrotation
    JOINT LeftToe
    {
     OFFSET 0.000000 -4.915500 10.826300
     CHANNELS 3 Yrotation Xrotation Zrotation
     End Site
     {
      OFFSET 0.000000 -1.517500 6.175900
     }
    }
   }
  }
 }
}
MOTION
Frames: 13
Frame Time: 0.008333
0.000000 91.618600 0.000000 0.000000 -5.767877 0.000000 0.000000 11.653817 0.000000 0.000000 -5.885947 0.000000 0.000000 -0.000000 0.000000 0.000000 -0.000000 0.000000 0.000000 12.528835 0.000000 0.000000 0.711642 0.000000 0.000000 -0.000000 0.000000 0.000000 0.000000 -90.000000 0.000000 -2.309062 0.000000 0.000000 2.309062 0.000000 0.000000 -0.000000 0.000000 0.000000 -0.000000 90.000000 0.000000 -2.309062 0.000000 0.000000 2.309062 0.000000 0.000000 8.520406 0.000000 0.000000 1.905762 0.000000 -0.000000 -4.658285 0.000000 0.000000 -0.000000 0.000000 0.000000 8.520406 0.000000 0.000000 1.905762 0.000000 -0.000000 -4.658285 0.000000 0.000000 -0.000000 0.000000
-12.668989 147.100949 26.306038 178.008118 -19.094739 -4.860443 -1.815150 10.723060 1.390218 -0.126504 0.712503 0.116929 -0.222162 1.220203 0.195712 -1.689826 9.879269 1.459107 -0.589110 15.935667 -1.597171 -0.254505 -9.002520 -1.535224 1.759902 7.789604 -4.668193 -12.601424 -2.286396 -0.928933 161.231898 -74.990356 -163.096650 -14.249716 -21.882829 -32.172748 -2.068212 10.401178 1.395487 13.470822 -5.467712 -7.382403 -167.088789 -64.716209 163.966187 8.969784 3.599151 27.167740 8.452329 -59.448879 -8.683474 -137.620593 75.758248 -131.307182 -0.367692 -21.151678 4.197262 0.021600 -0.167838 0.010703 -16.859667 -59.225230 12.637623 134.965920 77.254618 132.892713 -2.163399 -20.542177 -1.799835 0.052921 0.145482 0.020862
-11.694630 140.557961 26.561439 178.021823 -19.094536 -4.922256 -1.818759 10.724019 1.447528 -0.128212 0.711373 0.114159 -0.221809 1.219643 0.195839 -1.696237 9.870722 1.460818 -0.590570 15.938143 -1.589824 -0.257697 -8.999999 -1.527138 1.768448 7.801489 -4.668751 -12.595599 -2.284085 -0.925705 161.214577 -74.992071 -163.091105 -14.242018 -21.888057 -32.194745 -2.060639 10.420418 1.401550 13.474775 -5.472802 -7.389001 -167.089112 -64.717268 163.953216 8.974585 3.597641 27.181307 8.354533 -59.465745 -8.579937 -137.661193 75.747193 -131.345293 -0.367590 -21.204691 4.199445 0.015425 -0.122960 0.006999 -16.955639 -59.197355 12.739280 134.922053 77.267789 132.848569 -2.152105 -20.494171 -1.798307 0.033470 0.099046 0.015211
-10.889167 135.169777 26.772221 178.035066 -19.093075 -4.990762 -1.820635 10.723421 1.512900 -0.129585 0.708839 0.114609 -0.228811 1.217168 0.193502 -1.697221 9.874208 1.459561 -0.588836 15.939875 -1.586401 -0.256646 -8.998267 -1.523942 1.775584 7.801920 -4.665682 -12.590752 -2.279266 -0.926935 161.213144 -74.994780 -163.099270 -14.237916 -21.897568 -32.202161 -2.050328 10.425671 1.406467 13.480607 -5.470750 -7.385525 -167.093204 -64.718778 163.944143 8.988652 3.595536 27.197975 8.241854 -59.479893 -8.458749 -137.674727 75.742333 -131.359471 -0.363546 -21.271627 4.204691 0.002217 -0.060570 0.001007 -17.054744 -59.172481 12.844950 134.882917 77.277227 132.814837 -2.122449 -20.437841 -1.800742 0.016188 0.046141 0.007354
-10.308189 131.278252 26.924345 178.043960 -19.092752 -5.035674 -1.828711 10.723132 1.551212 -0.130136 0.708746 0.114405 -0.222976 1.218892 0.195770 -1.702906 9.872795 1.458836 -0.588298 15.941697 -1.583430 -0.256771 -8.996403 -1.520940 1.791190 7.803460 -4.664574 -12.599788 -2.276138 -0.925379 161.221803 -75.001167 -163.114734 -14.235929 -21.908264 -32.210858 -2.042224 10.425616 1.408796 13.471313 -5.466011 -7.378653 -167.099132 -64.717557 163.959363 8.995511 3.596101 27.207045 8.169084 -59.491797 -8.382676 -137.700016 75.737568 -131.380055 -0.363527 -21.312657 4.202072 0.000729 -0.022345 0.000331 -17.122575 -59.151875 12.916551 134.847849 77.285770 132.782011 -2.121114 -20.406289 -1.797984 0.005306 0.015260 0.002410
-9.945047 128.820011 27.020371 178.044794 -19.091999 -5.041052 -1.832073 10.722180 1.554976 -0.130246 0.708753 0.114375 -0.223189 1.219028 0.195710 -1.702970 9.870447 1.460217 -0.589166 15.944503 -1.582291 -0.260452 -8.993162 -1.518388 1.799591 7.807971 -4.662435 -12.606636 -2.274506 -0.925305 161.231602 -75.006052 -163.123650 -14.233080 -21.918991 -32.223919 -2.038719 10.427338 1.408186 13.466556 -5.466936 -7.369351 -167.093369 -64.716188 163.960104 8.999046 3.596959 27.207273 8.158470 -59.494786 -8.373362 -137.704686 75.737977 -131.384113 -0.363262 -21.323433 4.200527 0.001412 -0.011571 0.000641 -17.127246 -59.145381 12.924893 134.834018 77.292905 132.770384 -2.203135 -20.403484 -1.768634 -0.004449 0.007169 -0.002020
-9.745580 127.467924 27.072978 178.050188 -19.092133 -5.043574 -1.841151 10.721450 1.556215 -0.130262 0.708528 0.114358 -0.221514 1.216793 0.196186 -1.702121 9.870247 1.459341 -0.590000 15.948449 -1.582787 -0.265307 -8.989616 -1.516367 1.812280 7.812728 -4.660949 -12.620201 -2.268855 -0.923138 161.237448 -75.006082 -163.127987 -14.227736 -21.926634 -32.231520 -2.041173 10.425489 1.410238 13.477434 -5.457510 -7.365964 -167.074705 -64.701451 163.946403 8.988586 3.592852 27.206279 8.153398 -59.496628 -8.373083 -137.707261 75.730760 -131.387630 -0.358318 -21.332668 4.202838 0.001827 -0.006497 0.000830 -17.130017 -59.140630 12.922713 134.832750 77.297588 132.772054 -2.249992 -20.403467 -1.752443 -0.010310 0.002991 -0.004681
-9.649408 126.823998 27.098200 178.061994 -19.090318 -5.053707 -1.852106 10.719834 1.562441 -0.122180 0.707106 0.115922 -0.223983 1.217575 0.195774 -1.706771 9.867647 1.459554 -0.595438 15.953169 -1.582749 -0.266783 -8.982555 -1.516398 1.817828 7.815742 -4.657291 -12.627157 -2.263021 -0.925214 161.239717 -75.002537 -163.129496 -14.221268 -21.928214 -32.234413 -2.037807 10.431504 1.416356 13.479650 -5.454770 -7.368209 -167.070711 -64.690203 163.945254 8.982741 3.589909 27.204887 8.133461 -59.501310 -8.362223 -137.718551 75.724221 -131.399010 -0.357625 -21.339275 4.204722 0.001628 -0.006182 0.000739 -17.149995 -59.138029 12.926712 134.796425 77.295045 132.728708 -2.142813 -20.396812 -1.784254 -0.002513 0.002029 -0.001141
-9.610270 126.560266 27.108807 178.075919 -19.086045 -5.058927 -1.851454 10.715316 1.568871 -0.131199 0.707641 0.114428 -0.226018 1.217132 0.195226 -1.713082 9.865470 1.460345 -0.594909 15.958336 -1.584618 -0.270381 -8.975561 -1.513817 1.830045 7.818109 -4.655261 -12.635968 -2.260020 -0.928100 161.221311 -75.003016 -163.121987 -14.220627 -21.927077 -32.227246 -2.034768 10.434906 1.414649 13.485463 -5.455848 -7.364528 -167.063789 -64.682246 163.942038 8.979955 3.587979 27.204107 8.122208 -59.506408 -8.364745 -137.732555 75.724213 -131.411949 -0.359143 -21.340049 4.202645 0.002284 -0.005963 0.001037 -17.164311 -59.140310 12.924752 134.807028 77.304647 132.740362 -2.099070 -20.390948 -1.796416 -0.000263 0.001624 -0.000120
-9.596666 126.468374 27.112300 178.091394 -19.083369 -5.063280 -1.864162 10.713865 1.569432 -0.129537 0.707564 0.115729 -0.229738 1.216934 0.193435 -1.719979 9.863006 1.463150 -0.596058 15.963701 -1.583652 -0.265498 -8.973204 -1.518046 1.844852 7.817872 -4.658098 -12.644572 -2.255135 -0.928470 161.203086 -75.000712 -163.111843 -14.222681 -21.924079 -32.222315 -2.028624 10.437600 1.410035 13.501481 -5.451503 -7.362127 -167.078550 -64.675149 163.945592 8.976611 3.582333 27.207156 8.110363 -59.508097 -8.368260 -137.739794 75.724223 -131.421615 -0.359601 -21.341541 4.207023 0.001847 -0.005329 0.000839 -17.176729 -59.141213 12.919352 134.824127 77.312027 132.761995 -2.072732 -20.389684 -1.806217 0.001051 0.001895 0.000477
-9.591789 126.441338 27.113536 178.098457 -19.079594 -5.069597 -1.866630 10.710914 1.575377 -0.131230 0.707383 0.115941 -0.227276 1.217148 0.194588 -1.728701 9.859643 1.465360 -0.595411 15.967130 -1.588060 -0.264730 -8.971211 -1.518434 1.853378 7.823839 -4.663328 -12.653894 -2.253821 -0.925617 161.190387 -75.000241 -163.103531 -14.221565 -21.923721 -32.218725 -2.033568 10.440667 1.401125 13.521930 -5.452914 -7.360137 -167.084559 -64.671660 163.945410 8.976550 3.576975 27.210091 8.098085 -59.511422 -8.363774 -137.754523 75.732123 -131.435149 -0.362497 -21.342390 4.205200 0.002770 -0.004533 0.001258 -17.192915 -59.143134 12.927082 134.843544 77.314425 132.782840 -2.036155 -20.391201 -1.817233 0.002994 0.001606 0.001359
-9.590217 126.434525 27.114107 178.095873 -19.075436 -5.071095 -1.862067 10.706743 1.580953 -0.132433 0.707076 0.114724 -0.228772 1.216208 0.197308 -1.729034 9.858823 1.464670 -0.596787 15.968706 -1.588860 -0.263447 -8.968572 -1.521836 1.853772 7.827384 -4.667382 -12.660440 -2.250107 -0.923231 161.140914 -75.003806 -163.058605 -14.200922 -21.913735 -32.211076 -2.035082 10.442284 1.395987 13.525235 -5.454612 -7.358654 -167.085903 -64.642503 163.945616 8.983978 3.600183 27.217749 8.094738 -59.518651 -8.361133 -137.752022 75.735325 -131.437848 -0.358707 -21.343601 4.203588 0.001244 -0.005492 0.000565 -17.200097 -59.147149 12.935345 134.856493 77.314339 132.795097 -2.009915 -20.388799 -1.823856 0.004465 0.000847 0.002027
-9.589744 126.432955 27.114216 178.093564 -19.072525 -5.070795 -1.863526 10.704805 1.581261 -0.129848 0.707355 0.116908 -0.226465 1.215291 0.196895 -1.730616 9.858087 1.463607 -0.596052 15.971373 -1.586595 -0.264130 -8.964865 -1.522896 1.852532 7.829351 -4.670158 -12.662581 -2.248682 -0.920682 161.109883 -75.007229 -163.031757 -14.192591 -21.912248 -32.208232 -2.037631 10.443633 1.393366 13.528170 -5.457964 -7.355975 -167.104738 -64.629905 163.960251 8.979488 3.608183 27.225291 8.096218 -59.523438 -8.361750 -137.764431 75.744926 -131.458152 -0.365782 -21.342050 4.211972 -0.001591 -0.005361 -0.000722 -17.202114 -59.150039 12.938863 134.865455 77.314871 132.804514 -2.004696 -20.388396 -1.825283 0.004643 0.000068 0.002108
